<mxGraphModel dx="1116" dy="579" grid="1" gridSize="8" guides="1" tooltips="1" connect="1" arrows="1" fold="1" page="1" pageScale="1" pageWidth="1169" pageHeight="827" background="#ffffff"><root><MiscDiagram modelType="MiscDiagram" lastModifiedUserId="dbush@ibm.com" description="" lastModified="2021-10-20T13:59:54Z" _id="miscdiagram_Sye8CF2Ht" label="RPA on Windows" id="0"><mxCell/></MiscDiagram><mxCell id="1" parent="0"/><UserObject placeholders="1" label="MS SQL Server" Icon-Name="data--base" id="miscdiagram_Sye8CF2Ht_23dyTj8kTUdl"><mxCell style="shape=mxgraph.ibm2mondrian.base;shapeType=ln;shapeLayout=collapsed;colorFamily=cyan;colorBackground=noColor:noColor;html=1;whiteSpace=wrap;metaEdit=1;strokeWidth=1;collapsible=0;recursiveResize=0;expand=0;fontFamily=IBM Plex Sans;fontColor=#000000;fontSize=14;image=;verticalAlign=top;align=center;spacing=0;spacingLeft=0;spacingRight=0;spacingTop=0;spacingBottom=0;verticalLabelPosition=bottom;labelPosition=center;positionText=bottom;container=1" vertex="1" parent="1"><mxGeometry x="236" y="640" width="48" height="48" as="geometry"/></mxCell></UserObject><UserObject placeholders="1" label="SMTP" Icon-Name="ibm-cloud--internet-services" id="miscdiagram_Sye8CF2Ht_33dyTj8kDggo"><mxCell style="shape=mxgraph.ibm2mondrian.base;shapeType=pn;shapeLayout=collapsed;colorFamily=blue;colorBackground=noColor:noColor;html=1;whiteSpace=wrap;metaEdit=1;strokeWidth=1;collapsible=0;recursiveResize=0;expand=0;fontFamily=IBM Plex Sans;fontColor=#000000;fontSize=14;image=;verticalAlign=top;align=center;spacing=0;spacingLeft=0;spacingRight=0;spacingTop=0;spacingBottom=0;verticalLabelPosition=bottom;labelPosition=center;positionText=bottom;container=1" vertex="1" parent="1"><mxGeometry x="146" y="640" width="48" height="48" as="geometry"/></mxCell></UserObject><mxCell id="miscdiagram_Sye8CF2Ht_43dyTj8kGxay" value="" style="endArrow=none;html=1;jumpStyle=arc;jumpSize=8;rounded=1;entryX=0.5;entryY=0.042;entryPerimeter=0;exitX=0.192;exitY=1;exitPerimeter=0;" edge="1" parent="1" source="miscdiagram_Sye8CF2Ht_53dyTj8kTCNk" target="miscdiagram_Sye8CF2Ht_33dyTj8kDggo"><mxGeometry width="50" height="50" relative="1" as="geometry"><mxPoint x="-536" y="584" as="sourcePoint"/><mxPoint x="-486" y="534" as="targetPoint"/></mxGeometry></mxCell><mxCell id="miscdiagram_Sye8CF2Ht_53dyTj8kTCNk" value="" style="rounded=0;whiteSpace=wrap;html=1;glass=0;comic=0;shadow=0;" vertex="1" parent="1"><mxGeometry x="64" y="48" width="552" height="520" as="geometry"/></mxCell><UserObject placeholders="1" label="Windows Virtual Desktop" Icon-Name="virtual-desktop" id="miscdiagram_Sye8CF2Ht_63dyTj8kWPn8"><mxCell style="shape=mxgraph.ibm2mondrian.base;shapeType=ln;shapeLayout=collapsed;colorFamily=magenta;colorBackground=noColor:noColor;html=1;whiteSpace=wrap;metaEdit=1;strokeWidth=1;collapsible=0;recursiveResize=0;expand=0;fontFamily=IBM Plex Sans;fontColor=#000000;fontSize=14;image=;verticalAlign=top;align=center;spacing=0;spacingLeft=0;spacingRight=0;spacingTop=0;spacingBottom=0;verticalLabelPosition=bottom;labelPosition=center;positionText=bottom;container=1" vertex="1" parent="1"><mxGeometry x="84" y="72" width="48" height="48" as="geometry"/></mxCell></UserObject><UserObject placeholders="1" label="RPA Studio (Dev only)" Icon-Name="cube" id="miscdiagram_Sye8CF2Ht_73dyTj8kHbc2"><mxCell style="shape=mxgraph.ibm2mondrian.base;shapeType=lg;shapeLayout=expanded;colorFamily=green;colorBackground=noColor:noColor;html=1;whiteSpace=wrap;metaEdit=1;strokeWidth=1;collapsible=0;recursiveResize=0;expand=0;fontFamily=IBM Plex Sans;fontColor=#000000;fontSize=14;image=;verticalAlign=middle;align=left;spacing=0;spacingLeft=12;spacingRight=16;spacingTop=0;spacingBottom=0;container=1" vertex="1" parent="1"><mxGeometry x="108" y="224" width="152" height="68" as="geometry"/></mxCell></UserObject><mxCell id="miscdiagram_Sye8CF2Ht_83dyTj8kPEkp" value="" style="endArrow=none;html=1;jumpStyle=arc;jumpSize=8;rounded=1;entryX=0.422;entryY=1.008;entryPerimeter=0;" edge="1" parent="1" source="miscdiagram_Sye8CF2Ht_123dyTj8kmprp" target="miscdiagram_Sye8CF2Ht_93dyTj8k9ueh"><mxGeometry width="50" height="50" relative="1" as="geometry"><mxPoint x="160" y="562" as="sourcePoint"/><mxPoint x="160" y="404" as="targetPoint"/></mxGeometry></mxCell><UserObject placeholders="1" label="RPA Agent" Icon-Name="cube" _id="userobject_34ifwNIt970" id="miscdiagram_Sye8CF2Ht_93dyTj8k9ueh"><mxCell style="shape=mxgraph.ibm2mondrian.base;shapeType=lg;shapeLayout=expanded;colorFamily=green;colorBackground=noColor:noColor;html=1;whiteSpace=wrap;metaEdit=1;strokeWidth=1;collapsible=0;recursiveResize=0;expand=0;fontFamily=IBM Plex Sans;fontColor=#000000;fontSize=14;image=;verticalAlign=middle;align=left;spacing=0;spacingLeft=12;spacingRight=16;spacingTop=0;spacingBottom=0;container=1" vertex="1" parent="1"><mxGeometry x="304" y="224" width="152" height="68" as="geometry"/></mxCell></UserObject><mxCell id="miscdiagram_Sye8CF2Ht_103dyTj8kFL9v" value="" style="endArrow=none;html=1;jumpStyle=arc;jumpSize=8;rounded=1;exitX=0.233;exitY=-0.022;exitPerimeter=0;edgeStyle=orthogonalEdgeStyle;" edge="1" parent="1" source="miscdiagram_Sye8CF2Ht_123dyTj8kmprp" target="miscdiagram_Sye8CF2Ht_73dyTj8kHbc2"><mxGeometry width="50" height="50" relative="1" as="geometry"><mxPoint x="112" y="658" as="sourcePoint"/><mxPoint x="162" y="608" as="targetPoint"/><Array as="points"><mxPoint x="330" y="358"/><mxPoint x="184" y="358"/></Array></mxGeometry></mxCell><mxCell id="miscdiagram_Sye8CF2Ht_113dyTj8kN9Eu" value="" style="endArrow=none;html=1;jumpStyle=arc;jumpSize=8;rounded=1;" edge="1" parent="1" source="miscdiagram_Sye8CF2Ht_93dyTj8k9ueh" target="miscdiagram_Sye8CF2Ht_73dyTj8kHbc2"><mxGeometry width="50" height="50" relative="1" as="geometry"><mxPoint x="120" y="682" as="sourcePoint"/><mxPoint x="170" y="632" as="targetPoint"/></mxGeometry></mxCell><UserObject placeholders="1" label="RPA Robot Runner" Icon-Name="cube" _id="userobject_32UdcglKTdE" id="miscdiagram_Sye8CF2Ht_123dyTj8kmprp"><mxCell style="shape=mxgraph.ibm2mondrian.base;shapeType=lg;shapeLayout=expanded;colorFamily=green;colorBackground=noColor:noColor;html=1;whiteSpace=wrap;metaEdit=1;strokeWidth=1;collapsible=0;recursiveResize=0;expand=0;fontFamily=IBM Plex Sans;fontColor=#000000;fontSize=14;image=;verticalAlign=middle;align=left;spacing=0;spacingLeft=12;spacingRight=16;spacingTop=0;spacingBottom=0;container=1" vertex="1" parent="1"><mxGeometry x="296" y="424" width="144" height="64" as="geometry"/></mxCell></UserObject><UserObject placeholders="1" label="Active Directory" Icon-Name="cube" _id="userobject_34idkg7VEpK" id="miscdiagram_Sye8CF2Ht_133dyTj8kLvt2"><mxCell style="shape=mxgraph.ibm2mondrian.base;shapeType=lg;shapeLayout=expanded;colorFamily=green;colorBackground=noColor:noColor;html=1;whiteSpace=wrap;metaEdit=1;strokeWidth=1;collapsible=0;recursiveResize=0;expand=0;fontFamily=IBM Plex Sans;fontColor=#000000;fontSize=14;image=;verticalAlign=middle;align=left;spacing=0;spacingLeft=12;spacingRight=16;spacingTop=0;spacingBottom=0;container=1" vertex="1" parent="1"><mxGeometry x="92" y="424" width="144" height="64" as="geometry"/></mxCell></UserObject><mxCell id="miscdiagram_Sye8CF2Ht_143dyTj8knXHZ" value="" style="endArrow=none;html=1;jumpStyle=arc;jumpSize=8;rounded=1;" edge="1" parent="1" source="miscdiagram_Sye8CF2Ht_133dyTj8kLvt2" target="miscdiagram_Sye8CF2Ht_123dyTj8kmprp"><mxGeometry width="50" height="50" relative="1" as="geometry"><mxPoint x="16" y="690" as="sourcePoint"/><mxPoint x="66" y="640" as="targetPoint"/></mxGeometry></mxCell><UserObject placeholders="1" label="Redis Server" Icon-Name="application" id="miscdiagram_Sye8CF2Ht_153dyTj8krgca"><mxCell style="shape=mxgraph.ibm2mondrian.base;shapeType=ln;shapeLayout=collapsed;colorFamily=purple;colorBackground=noColor:noColor;html=1;whiteSpace=wrap;metaEdit=1;strokeWidth=1;collapsible=0;recursiveResize=0;expand=0;fontFamily=IBM Plex Sans;fontColor=#000000;fontSize=14;image=;verticalAlign=top;align=center;spacing=0;spacingLeft=0;spacingRight=0;spacingTop=0;spacingBottom=0;verticalLabelPosition=bottom;labelPosition=center;positionText=bottom;container=1" vertex="1" parent="1"><mxGeometry x="348" y="640" width="48" height="48" as="geometry"/></mxCell></UserObject><UserObject placeholders="1" label="MSMQ" Icon-Name="application" id="miscdiagram_Sye8CF2Ht_163dyTj8kvGo0"><mxCell style="shape=mxgraph.ibm2mondrian.base;shapeType=ln;shapeLayout=collapsed;colorFamily=purple;colorBackground=noColor:noColor;html=1;whiteSpace=wrap;metaEdit=1;strokeWidth=1;collapsible=0;recursiveResize=0;expand=0;fontFamily=IBM Plex Sans;fontColor=#000000;fontSize=14;image=;verticalAlign=top;align=center;spacing=0;spacingLeft=0;spacingRight=0;spacingTop=0;spacingBottom=0;verticalLabelPosition=bottom;labelPosition=center;positionText=bottom;container=1" vertex="1" parent="1"><mxGeometry x="424" y="640" width="48" height="48" as="geometry"/></mxCell></UserObject><mxCell id="miscdiagram_Sye8CF2Ht_173dyTj8kj4uk" value="" style="endArrow=none;html=1;jumpStyle=arc;jumpSize=8;rounded=1;entryX=0.531;entryY=1.049;entryPerimeter=0;" edge="1" parent="1" source="miscdiagram_Sye8CF2Ht_153dyTj8krgca" target="miscdiagram_Sye8CF2Ht_123dyTj8kmprp"><mxGeometry width="50" height="50" relative="1" as="geometry"><mxPoint x="624" y="714" as="sourcePoint"/><mxPoint x="674" y="664" as="targetPoint"/></mxGeometry></mxCell><mxCell id="miscdiagram_Sye8CF2Ht_183dyTj8kQMj9" style="edgeStyle=orthogonalEdgeStyle;rounded=1;html=1;jumpStyle=arc;jumpSize=8;jettySize=auto;orthogonalLoop=1;endArrow=none;endFill=0;" edge="1" parent="1" source="miscdiagram_Sye8CF2Ht_163dyTj8kvGo0" target="miscdiagram_Sye8CF2Ht_123dyTj8kmprp"><mxGeometry relative="1" as="geometry"><Array as="points"><mxPoint x="448" y="593"/><mxPoint x="408" y="593"/></Array></mxGeometry></mxCell><UserObject placeholders="1" label="Certificate" Icon-Name="policy" id="miscdiagram_Sye8CF2Ht_193dyTj8k9Rmw"><mxCell style="shape=mxgraph.ibm2mondrian.base;shapeType=ln;shapeLayout=collapsed;colorFamily=red;colorBackground=noColor:noColor;html=1;whiteSpace=wrap;metaEdit=1;strokeWidth=1;collapsible=0;recursiveResize=0;expand=0;fontFamily=IBM Plex Sans;fontColor=#000000;fontSize=14;image=;verticalAlign=top;align=center;spacing=0;spacingLeft=0;spacingRight=0;spacingTop=0;spacingBottom=0;verticalLabelPosition=bottom;labelPosition=center;positionText=bottom;container=1" vertex="1" parent="1"><mxGeometry x="520" y="390" width="48" height="48" as="geometry"/></mxCell></UserObject><mxCell id="miscdiagram_Sye8CF2Ht_203dyTj8km5vC" value="" style="endArrow=none;html=1;jumpStyle=arc;jumpSize=8;rounded=1;exitX=1.021;exitY=0.516;exitPerimeter=0;edgeStyle=orthogonalEdgeStyle;" edge="1" parent="1" source="miscdiagram_Sye8CF2Ht_123dyTj8kmprp" target="miscdiagram_Sye8CF2Ht_193dyTj8k9Rmw"><mxGeometry width="50" height="50" relative="1" as="geometry"><mxPoint x="624" y="562" as="sourcePoint"/><mxPoint x="674" y="512" as="targetPoint"/></mxGeometry></mxCell><mxCell id="miscdiagram_Sye8CF2Ht_213dyTj8kdLUy" value="" style="endArrow=none;html=1;jumpStyle=arc;jumpSize=8;rounded=1;edgeStyle=orthogonalEdgeStyle;exitX=0.583;exitY=0;exitPerimeter=0;" edge="1" parent="1" source="miscdiagram_Sye8CF2Ht_23dyTj8kTUdl" target="miscdiagram_Sye8CF2Ht_123dyTj8kmprp"><mxGeometry width="50" height="50" relative="1" as="geometry"><mxPoint x="-616" y="584" as="sourcePoint"/><mxPoint x="-566" y="534" as="targetPoint"/><Array as="points"><mxPoint x="264" y="608"/><mxPoint x="328" y="608"/></Array></mxGeometry></mxCell></root></mxGraphModel>